<svg width="711" height="201" viewBox="0 0 711 201" fill="none" xmlns="http://www.w3.org/2000/svg">
<rect y="1" width="200" height="200" rx="32" fill="#EDEDED"/>
<path d="M77.3333 50V67C77.3333 70.0058 76.1393 72.8885 74.0139 75.0139C71.8885 77.1393 69.0058 78.3333 66 78.3333H49" stroke="#0C0D10" stroke-width="12" stroke-linecap="round" stroke-linejoin="round"/>
<path d="M151 78.3333H134C130.994 78.3333 128.112 77.1393 125.986 75.0139C123.861 72.8885 122.667 70.0058 122.667 67V50" stroke="#0C0D10" stroke-width="12" stroke-linecap="round" stroke-linejoin="round"/>
<path d="M49 123.667H66C69.0058 123.667 71.8885 124.861 74.0139 126.986C76.1393 129.112 77.3333 131.994 77.3333 135V152" stroke="#0C0D10" stroke-width="12" stroke-linecap="round" stroke-linejoin="round"/>
<path d="M122.667 152V135C122.667 131.994 123.861 129.112 125.986 126.986C128.112 124.861 130.994 123.667 134 123.667H151" stroke="#0C0D10" stroke-width="12" stroke-linecap="round" stroke-linejoin="round"/>
<path d="M274 81.152C269.344 81.152 265.192 80.096 261.544 77.984C257.944 75.872 255.112 72.824 253.048 68.84C251.032 64.856 250.024 60.08 250.024 54.512C250.024 49.088 251.008 44.384 252.976 40.4C254.944 36.368 257.752 33.248 261.4 31.04C265.048 28.832 269.32 27.728 274.216 27.728C280.888 27.728 286.072 29.384 289.768 32.696C293.512 35.96 295.912 40.64 296.968 46.736L285.592 47.168C285.016 43.952 283.768 41.456 281.848 39.68C279.928 37.856 277.384 36.944 274.216 36.944C271.48 36.944 269.152 37.664 267.232 39.104C265.312 40.544 263.848 42.584 262.84 45.224C261.832 47.864 261.328 50.96 261.328 54.512C261.328 58.112 261.832 61.232 262.84 63.872C263.896 66.464 265.384 68.456 267.304 69.848C269.224 71.24 271.504 71.936 274.144 71.936C277.6 71.936 280.264 70.976 282.136 69.056C284.056 67.088 285.256 64.376 285.736 60.92L297.184 61.352C296.512 65.528 295.192 69.08 293.224 72.008C291.256 74.936 288.664 77.192 285.448 78.776C282.28 80.36 278.464 81.152 274 81.152ZM321.49 80.864C317.554 80.864 314.122 80.048 311.194 78.416C308.266 76.736 305.986 74.384 304.354 71.36C302.722 68.336 301.906 64.784 301.906 60.704C301.906 56.624 302.722 53.096 304.354 50.12C305.986 47.096 308.266 44.744 311.194 43.064C314.122 41.384 317.554 40.544 321.49 40.544C325.426 40.544 328.858 41.384 331.786 43.064C334.714 44.744 336.994 47.096 338.626 50.12C340.258 53.096 341.074 56.624 341.074 60.704C341.074 64.784 340.258 68.336 338.626 71.36C336.994 74.384 334.714 76.736 331.786 78.416C328.858 80.048 325.426 80.864 321.49 80.864ZM321.49 72.584C324.178 72.584 326.266 71.552 327.754 69.488C329.242 67.376 329.986 64.448 329.986 60.704C329.986 56.96 329.242 54.056 327.754 51.992C326.266 49.88 324.178 48.824 321.49 48.824C318.802 48.824 316.714 49.88 315.226 51.992C313.738 54.056 312.994 56.96 312.994 60.704C312.994 64.448 313.738 67.376 315.226 69.488C316.714 71.552 318.802 72.584 321.49 72.584ZM347.799 80V41.408H357.519L357.879 50.696L356.871 50.264C357.399 48.2 358.191 46.448 359.247 45.008C360.351 43.568 361.671 42.464 363.207 41.696C364.743 40.928 366.423 40.544 368.247 40.544C371.463 40.544 374.055 41.48 376.023 43.352C378.039 45.224 379.335 47.744 379.911 50.912L378.543 50.984C378.975 48.728 379.719 46.832 380.775 45.296C381.879 43.712 383.223 42.536 384.807 41.768C386.391 40.952 388.167 40.544 390.135 40.544C392.823 40.544 395.127 41.096 397.047 42.2C398.967 43.304 400.455 44.96 401.511 47.168C402.567 49.328 403.095 51.992 403.095 55.16V80H392.295V58.184C392.295 55.16 391.839 52.904 390.927 51.416C390.015 49.88 388.527 49.112 386.463 49.112C385.167 49.112 384.063 49.472 383.151 50.192C382.239 50.912 381.519 51.968 380.991 53.36C380.511 54.704 380.271 56.36 380.271 58.328V80H370.551V58.328C370.551 55.352 370.119 53.072 369.255 51.488C368.391 49.904 366.903 49.112 364.791 49.112C363.495 49.112 362.367 49.472 361.407 50.192C360.495 50.912 359.799 51.968 359.319 53.36C358.839 54.752 358.599 56.408 358.599 58.328V80H347.799ZM411.502 90.8V41.408H421.87L422.086 49.544L421.222 49.184C422.182 46.4 423.742 44.264 425.902 42.776C428.062 41.288 430.582 40.544 433.462 40.544C437.062 40.544 440.062 41.432 442.462 43.208C444.862 44.984 446.662 47.408 447.862 50.48C449.11 53.504 449.734 56.912 449.734 60.704C449.734 64.448 449.11 67.856 447.862 70.928C446.662 74 444.838 76.424 442.39 78.2C439.99 79.976 436.99 80.864 433.39 80.864C431.518 80.864 429.766 80.528 428.134 79.856C426.502 79.136 425.086 78.152 423.886 76.904C422.734 75.656 421.894 74.168 421.366 72.44L422.302 71.864V90.8H411.502ZM430.438 72.584C432.982 72.584 434.974 71.528 436.414 69.416C437.902 67.304 438.646 64.4 438.646 60.704C438.646 57.008 437.902 54.104 436.414 51.992C434.974 49.88 432.982 48.824 430.438 48.824C428.758 48.824 427.294 49.28 426.046 50.192C424.846 51.056 423.91 52.376 423.238 54.152C422.614 55.928 422.302 58.112 422.302 60.704C422.302 63.296 422.614 65.48 423.238 67.256C423.91 69.032 424.846 70.376 426.046 71.288C427.294 72.152 428.758 72.584 430.438 72.584ZM456.432 80V41.408H466.656L467.016 52.64L466.224 52.424C466.848 48.536 467.952 45.728 469.536 44C471.12 42.272 473.304 41.408 476.088 41.408H479.616V50.336H476.088C474.072 50.336 472.416 50.6 471.12 51.128C469.824 51.656 468.84 52.496 468.168 53.648C467.544 54.8 467.232 56.36 467.232 58.328V80H456.432ZM501.487 80.864C497.551 80.864 494.119 80.048 491.191 78.416C488.311 76.736 486.055 74.384 484.423 71.36C482.839 68.336 482.047 64.784 482.047 60.704C482.047 56.624 482.839 53.096 484.423 50.12C486.055 47.096 488.311 44.744 491.191 43.064C494.071 41.384 497.479 40.544 501.415 40.544C505.255 40.544 508.591 41.384 511.423 43.064C514.255 44.744 516.439 47.144 517.975 50.264C519.559 53.384 520.351 57.104 520.351 61.424V63.584H493.207C493.351 66.656 494.167 68.936 495.655 70.424C497.191 71.912 499.207 72.656 501.703 72.656C503.527 72.656 505.039 72.272 506.239 71.504C507.487 70.736 508.375 69.56 508.903 67.976L519.775 68.624C518.767 72.464 516.631 75.464 513.367 77.624C510.103 79.784 506.143 80.864 501.487 80.864ZM493.207 56.96H509.263C509.119 54.128 508.327 52.016 506.887 50.624C505.495 49.232 503.671 48.536 501.415 48.536C499.159 48.536 497.287 49.28 495.799 50.768C494.359 52.208 493.495 54.272 493.207 56.96ZM543.513 80.864C539.529 80.864 536.193 80.312 533.505 79.208C530.817 78.056 528.753 76.52 527.313 74.6C525.921 72.632 525.129 70.376 524.937 67.832L535.881 67.472C536.217 69.296 536.985 70.712 538.185 71.72C539.385 72.728 541.161 73.232 543.513 73.232C545.433 73.232 546.921 72.92 547.977 72.296C549.081 71.672 549.633 70.712 549.633 69.416C549.633 68.6 549.441 67.928 549.057 67.4C548.673 66.824 547.905 66.344 546.753 65.96C545.649 65.528 543.993 65.144 541.785 64.808C537.705 64.088 534.513 63.248 532.209 62.288C529.905 61.328 528.273 60.08 527.313 58.544C526.353 57.008 525.873 55.136 525.873 52.928C525.873 49.232 527.289 46.256 530.121 44C533.001 41.696 537.297 40.544 543.009 40.544C546.657 40.544 549.705 41.12 552.153 42.272C554.649 43.424 556.569 45.008 557.913 47.024C559.305 48.992 560.169 51.248 560.505 53.792L549.633 54.224C549.489 52.976 549.105 51.92 548.481 51.056C547.905 50.144 547.161 49.448 546.249 48.968C545.337 48.44 544.233 48.176 542.937 48.176C541.017 48.176 539.529 48.584 538.473 49.4C537.465 50.168 536.961 51.2 536.961 52.496C536.961 53.456 537.177 54.248 537.609 54.872C538.089 55.448 538.857 55.928 539.913 56.312C540.969 56.696 542.385 57.008 544.161 57.248C548.289 57.824 551.553 58.64 553.953 59.696C556.401 60.704 558.153 61.976 559.209 63.512C560.265 65.048 560.793 66.944 560.793 69.2C560.793 71.696 560.073 73.808 558.633 75.536C557.193 77.264 555.177 78.584 552.585 79.496C550.041 80.408 547.017 80.864 543.513 80.864ZM583.943 80.864C579.959 80.864 576.623 80.312 573.935 79.208C571.247 78.056 569.183 76.52 567.743 74.6C566.351 72.632 565.559 70.376 565.367 67.832L576.311 67.472C576.647 69.296 577.415 70.712 578.615 71.72C579.815 72.728 581.591 73.232 583.943 73.232C585.863 73.232 587.351 72.92 588.407 72.296C589.511 71.672 590.063 70.712 590.063 69.416C590.063 68.6 589.871 67.928 589.487 67.4C589.103 66.824 588.335 66.344 587.183 65.96C586.079 65.528 584.423 65.144 582.215 64.808C578.135 64.088 574.943 63.248 572.639 62.288C570.335 61.328 568.703 60.08 567.743 58.544C566.783 57.008 566.303 55.136 566.303 52.928C566.303 49.232 567.719 46.256 570.551 44C573.431 41.696 577.727 40.544 583.439 40.544C587.087 40.544 590.135 41.12 592.583 42.272C595.079 43.424 596.999 45.008 598.343 47.024C599.735 48.992 600.599 51.248 600.935 53.792L590.063 54.224C589.919 52.976 589.535 51.92 588.911 51.056C588.335 50.144 587.591 49.448 586.679 48.968C585.767 48.44 584.663 48.176 583.367 48.176C581.447 48.176 579.959 48.584 578.903 49.4C577.895 50.168 577.391 51.2 577.391 52.496C577.391 53.456 577.607 54.248 578.039 54.872C578.519 55.448 579.287 55.928 580.343 56.312C581.399 56.696 582.815 57.008 584.591 57.248C588.719 57.824 591.983 58.64 594.383 59.696C596.831 60.704 598.583 61.976 599.639 63.512C600.695 65.048 601.223 66.944 601.223 69.2C601.223 71.696 600.503 73.808 599.063 75.536C597.623 77.264 595.607 78.584 593.015 79.496C590.471 80.408 587.447 80.864 583.943 80.864ZM607.885 80V41.408H618.685V80H607.885ZM607.669 36.656V28.016H618.829V36.656H607.669ZM644.928 80.864C640.992 80.864 637.56 80.048 634.632 78.416C631.704 76.736 629.424 74.384 627.792 71.36C626.16 68.336 625.344 64.784 625.344 60.704C625.344 56.624 626.16 53.096 627.792 50.12C629.424 47.096 631.704 44.744 634.632 43.064C637.56 41.384 640.992 40.544 644.928 40.544C648.864 40.544 652.296 41.384 655.224 43.064C658.152 44.744 660.432 47.096 662.064 50.12C663.696 53.096 664.512 56.624 664.512 60.704C664.512 64.784 663.696 68.336 662.064 71.36C660.432 74.384 658.152 76.736 655.224 78.416C652.296 80.048 648.864 80.864 644.928 80.864ZM644.928 72.584C647.616 72.584 649.704 71.552 651.192 69.488C652.68 67.376 653.424 64.448 653.424 60.704C653.424 56.96 652.68 54.056 651.192 51.992C649.704 49.88 647.616 48.824 644.928 48.824C642.24 48.824 640.152 49.88 638.664 51.992C637.176 54.056 636.432 56.96 636.432 60.704C636.432 64.448 637.176 67.376 638.664 69.488C640.152 71.552 642.24 72.584 644.928 72.584ZM671.236 80V41.408H680.956L681.388 52.712L680.02 52.352C680.404 49.472 681.172 47.168 682.324 45.44C683.524 43.712 685.012 42.464 686.788 41.696C688.564 40.928 690.508 40.544 692.62 40.544C695.404 40.544 697.756 41.144 699.676 42.344C701.644 43.544 703.132 45.248 704.14 47.456C705.196 49.616 705.724 52.184 705.724 55.16V80H694.924V58.76C694.924 56.696 694.756 54.944 694.42 53.504C694.084 52.064 693.484 50.984 692.62 50.264C691.756 49.496 690.556 49.112 689.02 49.112C686.764 49.112 685.036 49.952 683.836 51.632C682.636 53.264 682.036 55.64 682.036 58.76V80H671.236ZM272.56 175.152C268.144 175.152 264.352 174.408 261.184 172.92C258.016 171.432 255.544 169.344 253.768 166.656C251.992 163.968 250.984 160.8 250.744 157.152L261.76 156.648C262.048 158.664 262.624 160.392 263.488 161.832C264.4 163.224 265.6 164.28 267.088 165C268.624 165.72 270.496 166.08 272.704 166.08C274.528 166.08 276.064 165.864 277.312 165.432C278.608 165 279.592 164.352 280.264 163.488C280.936 162.576 281.272 161.472 281.272 160.176C281.272 158.976 280.984 157.944 280.408 157.08C279.832 156.168 278.728 155.352 277.096 154.632C275.464 153.864 273.064 153.12 269.896 152.4C265.528 151.392 262 150.264 259.312 149.016C256.672 147.768 254.752 146.208 253.552 144.336C252.352 142.416 251.752 140.016 251.752 137.136C251.752 134.064 252.496 131.376 253.984 129.072C255.52 126.768 257.728 124.968 260.608 123.672C263.488 122.376 266.92 121.728 270.904 121.728C275.128 121.728 278.704 122.472 281.632 123.96C284.56 125.448 286.84 127.488 288.472 130.08C290.152 132.672 291.16 135.648 291.496 139.008L280.552 139.584C280.408 137.808 279.928 136.272 279.112 134.976C278.296 133.632 277.192 132.6 275.8 131.88C274.408 131.16 272.728 130.8 270.76 130.8C268.264 130.8 266.296 131.352 264.856 132.456C263.464 133.56 262.768 135 262.768 136.776C262.768 138.024 263.08 139.08 263.704 139.944C264.376 140.76 265.456 141.48 266.944 142.104C268.48 142.728 270.64 143.328 273.424 143.904C278.176 144.864 281.92 146.088 284.656 147.576C287.44 149.016 289.408 150.744 290.56 152.76C291.712 154.776 292.288 157.08 292.288 159.672C292.288 162.84 291.472 165.6 289.84 167.952C288.256 170.256 285.976 172.032 283 173.28C280.072 174.528 276.592 175.152 272.56 175.152ZM315.127 174C311.143 174 308.215 173.088 306.343 171.264C304.471 169.392 303.535 166.44 303.535 162.408V126.336H314.335V161.112C314.335 162.984 314.719 164.256 315.487 164.928C316.303 165.6 317.503 165.936 319.087 165.936H324.487V174H315.127ZM297.343 143.472V135.408H324.487V143.472H297.343ZM343.807 174.864C339.823 174.864 336.703 173.592 334.447 171.048C332.239 168.456 331.135 164.856 331.135 160.248V135.408H341.935V157.728C341.935 160.704 342.391 162.888 343.303 164.28C344.215 165.624 345.655 166.296 347.623 166.296C349.831 166.296 351.535 165.552 352.735 164.064C353.983 162.528 354.607 160.248 354.607 157.224V135.408H365.407V174H355.543L355.255 162.912L356.623 163.2C356.047 167.04 354.679 169.944 352.519 171.912C350.359 173.88 347.455 174.864 343.807 174.864ZM387.918 174.864C384.654 174.864 381.822 174.048 379.422 172.416C377.07 170.736 375.246 168.408 373.95 165.432C372.702 162.408 372.078 158.832 372.078 154.704C372.078 150.576 372.726 147.024 374.022 144.048C375.318 141.024 377.142 138.696 379.494 137.064C381.894 135.384 384.702 134.544 387.918 134.544C390.654 134.544 393.006 135.12 394.974 136.272C396.99 137.376 398.502 138.912 399.51 140.88V122.88H410.31V174H400.014L399.798 168.312C398.742 170.376 397.158 171.984 395.046 173.136C392.982 174.288 390.606 174.864 387.918 174.864ZM391.446 166.584C393.174 166.584 394.638 166.128 395.838 165.216C397.038 164.304 397.95 162.984 398.574 161.256C399.198 159.48 399.51 157.296 399.51 154.704C399.51 152.064 399.198 149.88 398.574 148.152C397.95 146.376 397.038 145.056 395.838 144.192C394.638 143.28 393.174 142.824 391.446 142.824C388.902 142.824 386.886 143.904 385.398 146.064C383.91 148.176 383.166 151.056 383.166 154.704C383.166 158.304 383.91 161.184 385.398 163.344C386.934 165.504 388.95 166.584 391.446 166.584ZM418.814 174V135.408H429.615V174H418.814ZM418.599 130.656V122.016H429.759V130.656H418.599ZM455.857 174.864C451.921 174.864 448.489 174.048 445.561 172.416C442.633 170.736 440.353 168.384 438.721 165.36C437.089 162.336 436.273 158.784 436.273 154.704C436.273 150.624 437.089 147.096 438.721 144.12C440.353 141.096 442.633 138.744 445.561 137.064C448.489 135.384 451.921 134.544 455.857 134.544C459.793 134.544 463.225 135.384 466.153 137.064C469.081 138.744 471.361 141.096 472.993 144.12C474.625 147.096 475.441 150.624 475.441 154.704C475.441 158.784 474.625 162.336 472.993 165.36C471.361 168.384 469.081 170.736 466.153 172.416C463.225 174.048 459.793 174.864 455.857 174.864ZM455.857 166.584C458.545 166.584 460.633 165.552 462.121 163.488C463.609 161.376 464.353 158.448 464.353 154.704C464.353 150.96 463.609 148.056 462.121 145.992C460.633 143.88 458.545 142.824 455.857 142.824C453.169 142.824 451.081 143.88 449.593 145.992C448.105 148.056 447.361 150.96 447.361 154.704C447.361 158.448 448.105 161.376 449.593 163.488C451.081 165.552 453.169 166.584 455.857 166.584Z" fill="#EDEDED"/>
</svg>
